Patient4_TMGait_0pt6_01_left_38_EMG.mot
version=1
nRows=20
nColumns=33
inDegrees=no
endheader
time	1LAddLong	2LGlutMax	3LGlutMed	4LIliopsoas	5LSemiMemb	6LBicFemLong	7LRecFem	8LVastMed	9LVastLat	10LGasMed	11LTibAnt	12lTibPost	13LPeroneusLong	14LSol	15LExtDigLong	16LFlexDigLong	17RAddLong	18RGlutMax	19RGlutMed	20RIliopsoas	21RSemiMemb	22RBicFemLong	23RRecFem	24RVastMed	25RVastLat	26RGasMed	27RTibAnt	28RTibPost	29RPeroneusLong	30RSol	31RExtDigLong	32RFlexDigLong
46.3	0.0177	0.50903	-0.063324	-0.006256	-0.013885	-0.006866	0.071106	0.011597	0.25879	0.079956	-0.10498	0.009613	0.11673	-0.075073	0.081177	0.013428	-0.00824	0.44937	0.11932	-0.04364	-0.068054	-0.039978	0.091705	-0.051575	0.078583	-0.016632	-0.19348	-0.011139	-0.074158	-0.09491	-0.002441	-0.000305
46.301	0.012665	0.50446	-0.066376	-0.004425	-0.020752	-0.014191	0.06897	0.010376	0.25559	0.05722	-0.080872	0.014191	0.11414	-0.13138	-0.33402	0.003662	0.002747	0.43594	0.073853	-0.037689	0.053101	-0.033722	0.001678	-0.20966	0.27359	-0.019531	-0.23178	-0.005035	-0.075531	-0.014954	-0.005341	0.002747
46.302	0.016022	0.50003	-0.061951	-0.005035	0.017853	0.019989	0.069885	0.012512	0.2475	0.021667	-0.071259	0.012665	0.1236	-0.16296	-0.4538	0.01236	0.006866	0.40527	0.07843	-0.019531	0.080414	-0.059662	-0.41855	-0.32455	0.30884	0.013123	0.168	-0.006256	0.25635	0.059204	-0.002289	-0.004272
46.303	0.017395	0.45181	-0.059357	-0.000916	0.01236	0.027466	0.059814	0.001678	0.25024	-0.017395	0.031586	0.011749	0.099487	-0.41748	-0.27329	-0.001831	-0.006714	0.4364	-0.049896	-0.02243	0.045776	-0.010681	-0.39856	-0.13321	0.34347	0.012207	0.43274	-0.01236	-0.087585	0.11459	0.001221	0.001221
46.304	0.016174	0.44525	-0.056763	-0.006866	-0.013123	0.010223	0.062866	0.013733	0.24582	-0.036926	0.13794	0.012665	0.070038	-0.63248	-0.053864	-0.007629	-0.006256	0.41977	-0.12817	0.018005	-0.00061	-0.051422	-0.30548	-0.18204	0.14191	0.001221	-0.26108	-0.018463	0.15518	0.25253	-0.001526	0.003815
46.305	0.021973	0.40695	-0.053711	0.007629	-0.007629	0.014343	0.053406	0.006866	0.23758	-0.048218	0.064087	0.014496	0.07309	-0.54581	-0.004578	-0.020294	0.002594	0.44159	-0.11658	0.042419	-0.016479	-0.08255	-0.52429	-0.15091	-0.068207	0.00061	-0.72555	-0.013733	-0.1828	0.21469	0.001831	0.001831
46.306	0.023956	0.37308	-0.04715	0.005035	-0.02243	0.001373	0.057831	0.010223	0.23361	-0.045013	-0.031586	0.017242	0.066528	-0.42862	0.019836	-0.003967	0.001984	0.36758	-0.23224	0.028076	-0.020599	-0.069122	-0.5426	-0.12451	-0.16907	0.001984	-0.45929	-0.022278	0.96085	0.061646	-0.001068	0.002594
46.307	0.01236	0.38086	-0.035858	0.018921	-0.01358	-0.008392	0.042572	0.013428	0.22736	-0.057373	-0.066223	0.019226	0.066681	-0.33249	0.14664	-0.001678	0.006866	0.3479	-0.015869	0.059967	-0.027466	-0.12787	-0.28961	-0.026703	-0.3743	-0.034332	-0.065765	-0.024567	0.010681	-0.018768	-0.001678	0.005493
46.308	0.024109	0.36545	-0.034485	0.012665	-0.00824	-0.010529	0.03952	0.010376	0.2272	-0.040894	-0.007324	0.002747	0.010529	-0.070801	0.40039	-0.020905	0.008087	0.26581	0.060577	0.016785	-0.033417	-0.074615	0.00885	0.085907	-0.41855	-0.015564	0.036011	-0.022278	0.15854	-0.092621	-0.001678	0.004272
46.309	0.012054	0.33585	-0.031433	0.004272	-0.015259	-0.002441	0.038452	0.013275	0.22156	-0.055847	-0.00885	0.013123	0.052185	0.099792	0.44861	0.012512	-0.002747	0.19409	-0.12177	-0.004883	-0.037384	-0.084839	0.336	0.2243	-0.41672	0.018921	-0.26276	-0.02533	-0.13718	-0.35339	-0.003052	0.007324
46.31	0.018768	0.27817	-0.030212	0.006256	-0.018463	0.007935	0.034332	0.012817	0.21652	-0.067291	0.096741	0.001068	0.087433	0.20401	0.014496	0.002136	0.013885	0.10971	-0.30334	0.024414	-0.046997	-0.1004	0.53604	0.19363	-0.34042	0.023651	-0.41061	-0.029907	0.51056	-0.30273	-0.008698	0.00351
46.311	0.014954	0.21439	-0.021057	-0.010834	-0.030823	-0.024109	0.03479	0.010223	0.20798	-0.037079	0.022736	0.006256	0.068359	0.30487	-0.10834	0.017548	0.009155	0.10452	-0.18631	0.058594	-0.041046	-0.088959	0.40009	0.056763	-0.17029	0.000916	-0.019379	-0.002136	0.19226	0.087433	-0.002747	-0.000458
46.312	0.019226	0.15945	-0.019531	-0.003204	-0.019073	-0.027466	0.041656	0.007172	0.21072	-0.038147	-0.01236	0.005341	0.070953	0.32944	-0.018463	-0.000458	0.002289	0.065308	-0.13687	0.009003	-0.039368	-0.063019	0.29755	0.041809	0.002594	-0.008698	-0.06073	-0.009155	0.21347	0.10819	0.000305	-0.002441
46.313	0.022736	0.10788	-0.017548	0.016174	0.007172	-0.023804	0.048218	0.002136	0.20447	-0.052185	-0.059357	0.010529	0.066223	0.30914	0.078278	0.00473	0.002594	0.04715	0.034943	-0.00885	-0.039215	-0.084991	0.62775	0.12711	0.094299	0.002594	-0.088501	-0.015411	-1.3776	-0.14954	-0.004883	-0.000305
46.314	0.0177	0.047302	-0.040131	-0.001526	-0.007935	-0.015564	0.043793	0.008698	0.21103	-0.052338	-0.066681	0.002289	0.083008	0.21957	-0.10422	0.003052	0.013428	-0.030365	0.29907	-0.019073	-0.046997	-0.08255	0.74692	0.045166	0.034637	0.015259	-0.30151	-0.018311	-0.071564	-0.13138	0.00061	-0.003052
46.315	0.014954	0.024567	-0.034637	0.004425	-0.01358	-0.017242	0.037994	0.010223	0.20645	-0.065308	-0.023804	0.011749	0.11017	0.046692	-0.095367	0.013428	-0.001373	0.016022	0.025635	0.003357	-0.048065	-0.089417	0.3421	-0.048065	0.06134	0.009613	-0.24231	-0.024719	0.88272	0.004883	-0.002594	-0.003052
46.316	0.017242	-0.010223	-0.032349	0.013428	0.010376	-0.044098	0.053864	0.010986	0.19241	-0.081787	-0.02121	0.002441	0.13046	-0.18799	-0.12238	-0.00061	-0.000763	-0.002594	0.020599	-0.099487	-0.027313	-0.078125	0.1886	0.029144	0.086365	-0.008392	0.26642	-0.02655	0.54321	0.15839	-0.002899	-0.006104
46.317	0.014038	-0.035248	-0.02121	0.002441	-0.01709	-0.032654	0.040283	0.012512	0.20157	-0.055237	-0.018616	0.005646	0.10895	-0.12985	-0.053558	0.010223	-0.003052	-0.08606	-0.14893	-0.15854	-0.033875	-0.10223	-0.10864	0.002136	0.045166	-0.001984	0.59555	-0.019226	0.24551	0.12177	-0.002441	-0.009308
46.318	0.028839	-0.051727	-0.002441	0.003967	-0.01709	-0.026398	0.032959	0.010223	0.1973	-0.030975	-0.001373	0.011139	0.068817	-0.025482	0.043945	-0.004425	-0.012817	-0.081024	-0.017242	-0.072479	-0.027466	-0.088806	-0.58151	-0.13168	-0.001373	-0.003662	0.5217	-0.021667	0.18051	0.17914	-0.001984	0.002136
46.319	0.019073	-0.023651	-0.059052	0.007019	-0.02121	-0.012207	0.027466	0.009613	0.1947	-0.052643	0.008087	0.006866	0.023346	-0.24155	0.092468	0.003662	0.001373	-0.038757	-0.112	0.006104	-0.026703	-0.095978	-0.70541	-0.15137	-0.092621	0.001068	0.31113	-0.020752	-0.67947	0.000153	-0.002136	-0.001373
